<svg width="30" height="30" viewBox="0 0 30 30" fill="none" xmlns="http://www.w3.org/2000/svg">
    <path d="M22.8091 17.0436C23.2582 16.5945 23.2582 15.8664 22.8091 15.4173L22.6765 15.2847C22.2274 14.8356 21.4992 14.8356 21.0501 15.2847L17.6948 18.64C17.1593 19.1755 16.2437 18.7962 16.2437 18.0389V2C16.2437 1.36487 15.7289 0.85 15.0938 0.85H14.9062C14.2711 0.85 13.7563 1.36487 13.7563 2V18.0389C13.7563 18.7962 12.8407 19.1755 12.3052 18.64L8.94989 15.2847C8.50079 14.8356 7.77265 14.8356 7.32355 15.2847L7.19091 15.4173C6.74181 15.8664 6.74181 16.5945 7.19092 17.0436L14.1868 24.0396C14.6359 24.4887 15.3641 24.4887 15.8132 24.0396L22.8091 17.0436ZM29.15 27.8125C29.15 27.1774 28.6351 26.6625 28 26.6625H2C1.36487 26.6625 0.85 27.1774 0.85 27.8125V28C0.85 28.6351 1.36487 29.15 2 29.15H28C28.6351 29.15 29.15 28.6351 29.15 28V27.8125Z" fill="white" stroke="white" stroke-width="0.3"/>
</svg>