<svg preserveAspectRatio="none" width="100%" height="100%" viewBox="0 0 319 346" fill="none" xmlns="http://www.w3.org/2000/svg">
<g filter="url(#filter0_d)">
<path fill-rule="evenodd" clip-rule="evenodd" d="M273.964 241.935C290.114 240.569 303 227.376 303 211.168L303 67.9999C303 51.4313 289.569 37.9999 273 37.9999L71 37.9999C54.4315 37.9999 41 51.4314 41 67.9999L41 295C41 305.05 52.8561 307.902 61.7543 303.231C100.508 282.888 143.672 266.544 190.151 255.458C218.377 248.725 246.432 244.264 273.964 241.935Z" fill="url(#paint0_linear)"/>
</g>
<path fill-rule="evenodd" clip-rule="evenodd" d="M292.088 255.061C307.337 252.974 319 240.142 319 224.751L319 30C319 13.4314 305.569 -2.93434e-05 289 -2.78949e-05L30.0001 -5.2524e-06C13.4316 -3.80393e-06 0.000123487 13.4315 0.000124935 30L0.000151425 333C0.000151439 333.166 0.00149423 333.331 0.00417979 333.496C0.227081 347.244 17.197 349.344 29.1633 342.571C106.635 298.725 195.863 268.232 292.088 255.061Z" fill="url(#paint1_linear)"/>
<defs>
<filter id="filter0_d" x="1" y="6" width="342" height="347.416" filterUnits="userSpaceOnUse" color-interpolation-filters="sRGB">
<feFlood flood-opacity="0" result="BackgroundImageFix"/>
<feColorMatrix in="SourceAlpha" type="matrix" values="0 0 0 0 0 0 0 0 0 0 0 0 0 0 0 0 0 0 127 0"/>
<feOffset dy="8"/>
<feGaussianBlur stdDeviation="20"/>
<feColorMatrix type="matrix" values="0 0 0 0 0.45098 0 0 0 0 0.690196 0 0 0 0 0.913725 0 0 0 0.1 0"/>
<feBlend mode="normal" in2="BackgroundImageFix" result="effect1_dropShadow"/>
<feBlend mode="normal" in="SourceGraphic" in2="effect1_dropShadow" result="shape"/>
</filter>
<linearGradient id="paint0_linear" x1="41" y1="244.255" x2="286.284" y2="-28.8712" gradientUnits="userSpaceOnUse">
<stop stop-color="#FBFCFE"/>
<stop offset="1" stop-color="white"/>
</linearGradient>
<linearGradient id="paint1_linear" x1="19.5" y1="277" x2="327.008" y2="-20.0974" gradientUnits="userSpaceOnUse">
<stop stop-color="#FBFCFE"/>
<stop offset="1" stop-color="white"/>
</linearGradient>
</defs>
</svg>
