<svg width="24" height="24" viewBox="0 0 24 24" fill="none" xmlns="http://www.w3.org/2000/svg">
<path d="M23.147 10.4787L19.7332 7.06495V3.12145C19.7332 2.40841 19.1554 1.83055 18.4413 1.83055C17.7289 1.83055 17.1511 2.40841 17.1511 3.12145V4.48283L14.6092 1.9409C13.3525 0.684874 11.1675 0.687102 9.91366 1.94318L1.37791 10.4787C0.874029 10.9836 0.874029 11.8006 1.37791 12.3047C1.88202 12.8094 2.70055 12.8094 3.20448 12.3047L11.7394 3.76888C12.0175 3.49229 12.5075 3.49229 12.7841 3.76806L21.3205 12.3047C21.5736 12.5571 21.9036 12.6826 22.2335 12.6826C22.5641 12.6826 22.8947 12.5569 23.1471 12.3047C23.6511 11.8006 23.6511 10.9837 23.147 10.4787Z" fill="#A5A"/>
<path d="M12.7112 6.21909C12.4632 5.97124 12.0617 5.97124 11.8144 6.21909L4.30635 13.7249C4.18781 13.8434 4.12061 14.0052 4.12061 14.174V19.6485C4.12061 20.9331 5.1622 21.9747 6.44678 21.9747H10.164V16.2179H14.3607V21.9747H18.078C19.3626 21.9747 20.4042 20.9331 20.4042 19.6486V14.174C20.4042 14.0052 20.3376 13.8434 20.2184 13.7249L12.7112 6.21909Z" fill="#A5A"/>
<rect x="1" y="21" width="23" height="2" rx="1" fill="#A5A"/>
</svg>
