<svg width="32" height="32" viewBox="0 0 32 32" fill="none" xmlns="http://www.w3.org/2000/svg">
<path d="M16 24.2764C11.4364 24.2764 7.72363 20.5636 7.72363 16.0001C7.72363 11.4366 11.4364 7.72375 16 7.72375C20.5636 7.72375 24.2763 11.4365 24.2763 16.0001C24.2763 20.5637 20.5636 24.2764 16 24.2764ZM16 10.9429C13.207 10.9429 10.9428 13.207 10.9428 16C10.9428 18.793 13.207 21.0572 16 21.0572C18.793 21.0572 21.0571 18.793 21.0571 16C21.0571 13.2071 18.7929 10.9429 16 10.9429Z" fill="white"/>
<path d="M24.2928 22.2309C25.388 22.2309 26.2759 23.1188 26.2759 24.2141C26.2759 25.3094 25.388 26.1973 24.2928 26.1973C23.1975 26.1973 22.3096 25.3094 22.3096 24.2141C22.3096 23.1188 23.1975 22.2309 24.2928 22.2309Z" fill="white"/>
<path d="M22.467 32H9.53297C4.27647 32 0 27.7235 0 22.467V9.53297C0 4.27647 4.27647 0 9.53297 0H22.467C27.7235 0 32 4.27647 32 9.53297V22.467C31.9999 27.7235 27.7235 32 22.467 32ZM28.7808 9.53297C28.7808 6.046 25.954 3.2192 22.467 3.2192H9.53297C6.046 3.2192 3.2192 6.046 3.2192 9.53297V22.467C3.2192 25.9541 6.046 28.7808 9.53297 28.7808H22.467C25.954 28.7808 28.7808 25.9541 28.7808 22.467V9.53297Z" fill="white"/>
</svg>