<svg width="32" height="32" viewBox="0 0 32 32" fill="none" xmlns="http://www.w3.org/2000/svg">
<path d="M25.2574 19.8338C25.327 19.6661 25.4659 19.5367 25.6385 19.4796C27.6583 18.8116 29.4056 17.5838 30.6046 15.9991L30.5248 15.9387C30.5096 15.9589 30.4942 15.979 30.4788 15.9991M25.2574 19.8338L30.0394 15.4701C30.1927 15.6412 30.3395 15.818 30.4788 15.9991M25.2574 19.8338C25.1878 20.0018 25.1946 20.1915 25.2764 20.3538L25.2574 19.8338ZM30.4788 15.9991C29.2943 17.5374 27.5832 18.7311 25.6071 19.3846L25.6071 19.3846C25.4068 19.4509 25.2457 19.601 25.165 19.7955L25.165 19.7955C25.0843 19.9903 25.0922 20.2104 25.1871 20.3988M30.4788 15.9991L25.1871 20.3988M25.1871 20.3988C26.1222 22.2583 26.4882 24.3123 26.2378 26.2375C24.3125 26.4877 22.2585 26.122 20.399 25.1868L20.3989 25.1868C20.2107 25.0923 19.9904 25.084 19.7957 25.1648C19.6008 25.2453 19.4511 25.4067 19.3849 25.6068L19.3849 25.6068C18.7313 27.5829 17.5375 29.294 15.9993 30.4785C14.4607 29.2941 13.2671 27.5827 12.6136 25.6068L12.6136 25.6068C12.5473 25.4067 12.3976 25.2453 12.2027 25.1648C12.008 25.084 11.7877 25.0923 11.5995 25.1868L11.5994 25.1868C9.74016 26.1217 7.6861 26.4877 5.76064 26.2375C5.51021 24.3123 5.87619 22.2583 6.81129 20.3988C6.9062 20.2104 6.91408 19.9904 6.83371 19.7956L6.83364 19.7955C6.75294 19.6009 6.59154 19.4509 6.39135 19.3846L6.39132 19.3846C4.41525 18.7311 2.70387 17.5374 1.51965 15.9991C2.70387 14.4607 4.41526 13.2671 6.39133 12.6133L6.39139 12.6133C6.59125 12.547 6.75267 12.3973 6.8334 12.2024C6.91415 12.0078 6.90589 11.7877 6.81135 11.5995L6.81132 11.5994C5.8762 9.73991 5.51021 7.68586 5.76064 5.76064C7.68586 5.51021 9.73991 5.8762 11.5994 6.81132L11.5995 6.81135C11.7877 6.9059 12.0078 6.91414 12.2026 6.83342L12.2027 6.8334C12.3971 6.75274 12.5473 6.59165 12.6133 6.39133L25.1871 20.3988ZM30.0954 14.4464L30.0955 14.4463C30.3937 14.1793 30.8521 14.2044 31.1192 14.5027C31.1192 14.5027 31.1192 14.5027 31.1192 14.5027L31.0447 14.5694L30.0954 14.4464ZM30.0954 14.4464C29.7976 14.7136 29.772 15.1718 30.0393 15.4701L30.0954 14.4464ZM19.7955 6.83341L19.7955 6.8334C19.6011 6.75274 19.4509 6.59165 19.3849 6.39133C18.7311 4.41527 17.5374 2.70412 15.9991 1.51966C14.4607 2.70409 13.2671 4.4152 12.6133 6.39122L19.7955 6.83341ZM19.7955 6.83341C19.9904 6.91413 20.2107 6.90592 20.3988 6.81132C22.2582 5.8762 24.3123 5.51044 26.2378 5.76065C26.488 7.68587 26.122 9.73992 25.1868 11.5994L25.1868 11.5995M19.7955 6.83341L25.1868 11.5995M25.1868 11.5995C25.0923 11.7877 25.084 12.0078 25.1648 12.2026L25.1648 12.2027M25.1868 11.5995L25.1648 12.2027M25.1648 12.2027C25.2455 12.3972 25.4068 12.5473 25.6071 12.6133C25.8855 12.7055 26.163 12.81 26.4316 12.9235C26.8006 13.0797 27.2259 12.907 27.3817 12.5383C27.5378 12.1696 27.3653 11.7442 26.9966 11.5881L26.9965 11.5881M25.1648 12.2027L26.9965 11.5881M26.9965 11.5881C26.9387 11.5637 26.8805 11.5396 26.822 11.5158C27.7125 9.40978 27.9842 7.12251 27.5832 4.9933M26.9965 11.5881L27.0049 4.41473M27.0049 4.41473L27.005 4.41474C27.2985 4.47023 27.528 4.69961 27.5832 4.9933M27.0049 4.41473C24.8757 4.01395 22.5881 4.28569 20.4821 5.17622C19.6225 3.05721 18.1972 1.24764 16.408 0.0253993C16.1614 -0.143102 15.8368 -0.143102 15.5901 0.0253986L15.5901 0.0253993M27.0049 4.41473L15.5901 0.0253993M27.5832 4.9933L27.4849 5.01178L27.5832 4.99327C27.5832 4.99328 27.5832 4.99329 27.5832 4.9933ZM15.5901 0.0253993C13.801 1.24764 12.3755 3.05719 11.5161 5.17621M15.5901 0.0253993L15.6465 0.107856L11.5161 5.17621M11.5161 5.17621C9.41002 4.28545 7.12249 4.01371 4.99327 4.41473L4.99321 4.41474C4.69968 4.47022 4.46996 4.69956 4.41472 4.9933M11.5161 5.17621L27.0052 27.5834L27.0051 27.5834C24.8757 27.9842 22.5882 27.7125 20.4821 26.8219C19.6227 28.941 18.1972 30.7505 16.408 31.9728L16.4079 31.9728C16.2846 32.0569 16.1419 32.0991 15.9991 32.0991C15.8564 32.0991 15.7133 32.0569 15.5902 31.9728L15.5901 31.9728C13.801 30.7505 12.3755 28.941 11.5161 26.8219C9.41002 27.7125 7.12249 27.9842 4.99328 27.5834L4.99321 27.5834C4.69968 27.5279 4.46996 27.2986 4.41472 27.0049M4.41472 4.9933C4.01395 7.12251 4.28569 9.41002 5.17622 11.5161C3.0572 12.3757 1.2474 13.801 0.025394 15.5901C-0.143102 15.8368 -0.1431 16.1614 0.0253986 16.408M4.41472 4.9933L4.513 5.01178L4.41472 4.9933ZM0.0253986 16.408C0.025397 16.408 0.0253957 16.408 0.025394 16.408L0.107971 16.3516L0.0253986 16.408ZM0.0253986 16.408C1.24741 18.1972 3.05721 19.6225 5.17622 20.4821M5.17622 20.4821C4.2857 22.5881 4.01395 24.8757 4.41472 27.0049M5.17622 20.4821C5.2071 20.4946 5.23805 20.507 5.26906 20.5193L5.21555 20.3901C5.20231 20.4207 5.1892 20.4514 5.17622 20.4821ZM4.41472 27.0049C4.41472 27.0049 4.41473 27.0049 4.41473 27.0049L4.513 26.9864L4.41472 27.0049Z" fill="white" stroke="white" stroke-width="0.2"/>
</svg>
