<svg width="24" height="24" viewBox="0 0 24 24" fill="none" xmlns="http://www.w3.org/2000/svg">
<path d="M22.6437 10.605C22.5282 10.5325 21.8968 10.1531 21.3195 9.82858C20.8202 9.54795 20.4098 9.11849 20.1906 8.58935C19.9715 8.06022 19.9576 7.4664 20.1124 6.91498C20.286 6.29626 20.4609 5.60031 20.5 5.42954C20.556 5.18405 20.482 4.92699 20.304 4.74892L19.2375 3.68245C19.0594 3.50439 18.8023 3.43036 18.5568 3.48646C18.4255 3.51649 17.71 3.69484 17.0715 3.87385C16.52 4.02846 15.9261 4.01496 15.397 3.79578C14.8679 3.5766 14.4381 3.16648 14.1576 2.66711C13.8435 2.1079 13.4758 1.49306 13.3814 1.34275C13.2475 1.12948 13.0134 1 12.7615 1H11.2532C11.0014 1 10.7672 1.12948 10.6333 1.34275C10.5608 1.45825 10.1814 2.08965 9.85693 2.66696C9.5763 3.16625 9.14684 3.5766 8.6177 3.79579C8.08858 4.01497 7.49475 4.02881 6.94333 3.87406C6.32461 3.70042 5.62867 3.52552 5.45789 3.48646C5.21241 3.43041 4.95535 3.50443 4.77728 3.68245L3.71077 4.74897C3.5327 4.92703 3.45868 5.1841 3.51477 5.42958C3.54481 5.56088 3.72315 6.27643 3.90217 6.91498C4.05678 7.46645 4.04328 8.06028 3.82409 8.58942C3.60491 9.11855 3.1948 9.54825 2.69545 9.82873C2.13623 10.1428 1.52138 10.5106 1.37107 10.605C1.1578 10.7389 1.02832 10.973 1.02832 11.2249V12.7332C1.02832 12.985 1.1578 13.2192 1.37107 13.3531C1.48657 13.4256 2.11796 13.805 2.69528 14.1295C3.19456 14.4101 3.60492 14.8396 3.8241 15.3687C4.04328 15.8978 4.05712 16.4916 3.90237 17.0431C3.72873 17.6618 3.55383 18.3577 3.51477 18.5285C3.45872 18.774 3.5327 19.0311 3.71077 19.2091L4.77728 20.2756C4.95535 20.4537 5.2125 20.5278 5.45789 20.4716C5.58919 20.4416 6.30474 20.2633 6.94328 20.0842C7.49476 19.9296 8.08858 19.9431 8.61772 20.1623C9.14685 20.3815 9.57655 20.7916 9.85703 21.291C10.1711 21.8502 10.5389 22.465 10.6333 22.6153C10.7672 22.8286 11.0014 22.9581 11.2532 22.9581H12.7615C13.0134 22.9581 13.2475 22.8286 13.3814 22.6153C13.4539 22.4998 13.8333 21.8684 14.1578 21.2911C14.4384 20.7918 14.8679 20.3815 15.397 20.1623C15.9262 19.9431 16.52 19.9293 17.0714 20.084C17.6901 20.2577 18.3861 20.4326 18.5568 20.4716C18.8024 20.5278 19.0594 20.4537 19.2375 20.2756L20.304 19.2091C20.482 19.0311 20.5561 18.774 20.5 18.5285C20.4699 18.3972 20.2916 17.6817 20.1126 17.0431C19.958 16.4916 19.9715 15.8978 20.1906 15.3687C20.4098 14.8395 20.8199 14.4098 21.3193 14.1294C21.8785 13.8153 22.4934 13.4475 22.6437 13.3531C22.8569 13.2192 22.9864 12.985 22.9864 12.7332V11.2249C22.9864 10.973 22.8569 10.7389 22.6437 10.605ZM12.0074 16.7654C9.36815 16.7654 7.22098 14.6182 7.22098 11.979C7.22098 9.3398 9.36815 7.19267 12.0074 7.19267C14.6466 7.19267 16.7938 9.33985 16.7938 11.9791C16.7938 14.6183 14.6466 16.7654 12.0074 16.7654Z" fill="#A5A"/>
<rect x="0.19043" y="21.3657" width="23.5924" height="1.63429" rx="0.817143" fill="#A5A"/>
</svg>
