<svg width="13" height="13" viewBox="0 0 13 13" fill="none" xmlns="http://www.w3.org/2000/svg">
<path d="M12.1565 5.79657C12.0968 5.75909 11.7704 5.56296 11.4719 5.3952C11.2138 5.25012 11.0017 5.0281 10.8883 4.75455C10.775 4.48101 10.7679 4.17402 10.8479 3.88895C10.9377 3.56908 11.0281 3.2093 11.0483 3.12101C11.0772 2.9941 11.039 2.86121 10.9469 2.76915L10.3956 2.21781C10.3035 2.12576 10.1706 2.08749 10.0437 2.11649C9.97584 2.13202 9.60592 2.22421 9.27582 2.31676C8.99072 2.39669 8.68372 2.38971 8.41017 2.2764C8.13661 2.16309 7.91446 1.95107 7.76945 1.69291C7.60707 1.40381 7.41694 1.08595 7.36814 1.00825C7.29894 0.89799 7.17789 0.831055 7.0477 0.831055L6.26793 0.831055C6.13774 0.831055 6.01668 0.89799 5.94746 1.00825C5.90998 1.06796 5.71385 1.39437 5.54609 1.69283C5.40101 1.95095 5.179 2.16309 4.90544 2.2764C4.6319 2.38971 4.32491 2.39687 4.03984 2.31687C3.71998 2.2271 3.36019 2.13668 3.27191 2.11649C3.145 2.08751 3.0121 2.12578 2.92005 2.21781L2.36869 2.76917C2.27663 2.86123 2.23837 2.99412 2.26737 3.12103C2.28289 3.18891 2.37509 3.55883 2.46764 3.88894C2.54757 4.17404 2.54059 4.48103 2.42727 4.75458C2.31396 5.02813 2.10195 5.25028 1.8438 5.39528C1.5547 5.55766 1.23683 5.74779 1.15913 5.7966C1.04887 5.86579 0.981934 5.98685 0.981934 6.11704L0.981934 6.89681C0.981934 7.027 1.04887 7.14806 1.15913 7.21728C1.21883 7.25476 1.54525 7.45089 1.84371 7.61865C2.10182 7.76373 2.31397 7.98574 2.42728 8.2593C2.54059 8.53284 2.54774 8.83983 2.46774 9.1249C2.37798 9.44477 2.28756 9.80455 2.26737 9.89284C2.23839 10.0197 2.27663 10.1526 2.36869 10.2447L2.92005 10.7961C3.0121 10.8881 3.14504 10.9264 3.27191 10.8974C3.33979 10.8819 3.70971 10.7897 4.03981 10.6971C4.32491 10.6172 4.63191 10.6242 4.90546 10.7375C5.179 10.8508 5.40114 11.0628 5.54614 11.3209C5.70853 11.6101 5.89866 11.9279 5.94746 12.0056C6.01668 12.1159 6.13774 12.1828 6.26793 12.1828H7.0477C7.17789 12.1828 7.29894 12.1159 7.36816 12.0056C7.40564 11.9459 7.60178 11.6195 7.76953 11.321C7.91461 11.0629 8.13663 10.8508 8.41018 10.7375C8.68373 10.6242 8.99072 10.617 9.27579 10.697C9.59565 10.7868 9.95543 10.8772 10.0437 10.8974C10.1707 10.9264 10.3035 10.8881 10.3956 10.7961L10.9469 10.2447C11.039 10.1526 11.0773 10.0197 11.0483 9.89284C11.0327 9.82496 10.9405 9.45504 10.848 9.12493C10.7681 8.83983 10.775 8.53284 10.8884 8.25929C11.0017 7.98574 11.2137 7.7636 11.4718 7.61859C11.7609 7.45621 12.0788 7.26608 12.1565 7.21728C12.2668 7.14806 12.3337 7.027 12.3337 6.89681V6.11704C12.3337 5.98685 12.2668 5.86579 12.1565 5.79657ZM6.65781 8.98137C5.29341 8.98137 4.18337 7.87133 4.18337 6.50692C4.18337 5.14252 5.29341 4.0325 6.65781 4.0325C8.02222 4.0325 9.13225 5.14254 9.13225 6.50695C9.13225 7.87136 8.02222 8.98137 6.65781 8.98137Z" fill="white"/>
</svg>
