<svg width="40" height="40" viewBox="0 0 40 40" fill="none" xmlns="http://www.w3.org/2000/svg">
<path d="M22.5016 9.08818C22.1922 8.94058 21.8276 8.9797 21.5609 9.19487L12.9111 16.1143H8.77832C7.79846 16.1143 7 16.9128 7 17.8926V25.0059C7 25.9875 7.79846 26.7842 8.77832 26.7842H12.9111L21.5591 33.7036C21.7209 33.8317 21.9183 33.8975 22.1157 33.8975C22.2473 33.8975 22.3789 33.8672 22.5016 33.8085C22.8092 33.6609 23.0048 33.3497 23.0048 33.0083V9.8902C23.0048 9.54876 22.8092 9.23755 22.5016 9.08818Z" fill="white"/>
<rect x="34.8315" y="17" width="1.63768" height="9.8261" rx="0.818841" transform="rotate(45 34.8315 17)" fill="white"/>
<rect x="27.8945" y="18.2891" width="1.63768" height="9.8261" rx="0.818841" transform="rotate(-45 27.8945 18.2891)" fill="white"/>
</svg>
