<svg width="40" height="40" viewBox="0 0 40 40" fill="none" xmlns="http://www.w3.org/2000/svg">
<path d="M23.5016 9.08818C23.1922 8.94058 22.8276 8.9797 22.5609 9.19487L13.9111 16.1143H9.77832C8.79846 16.1143 8 16.9128 8 17.8926V25.0059C8 25.9875 8.79846 26.7842 9.77832 26.7842H13.9111L22.5591 33.7036C22.7209 33.8317 22.9183 33.8975 23.1157 33.8975C23.2473 33.8975 23.3789 33.8672 23.5016 33.8085C23.8092 33.6609 24.0048 33.3497 24.0048 33.0083V9.8902C24.0048 9.54876 23.8092 9.23755 23.5016 9.08818Z" fill="white"/>
<path d="M28.506 15.1616C28.1557 14.8166 27.5937 14.822 27.2487 15.1688C26.9037 15.5191 26.9073 16.081 27.2558 16.4278C28.6002 17.7544 29.34 19.5381 29.34 21.4498C29.34 23.3615 28.6002 25.1451 27.2558 26.4717C26.9073 26.8149 26.9037 27.3787 27.2487 27.729C27.423 27.9051 27.6524 27.9922 27.88 27.9922C28.1059 27.9922 28.3317 27.9068 28.506 27.7343C30.1918 26.0752 31.1183 23.8416 31.1183 21.4498C31.1183 19.0579 30.1918 16.8244 28.506 15.1616Z" fill="white"/>
<path d="M31.0148 12.656C30.6645 12.3093 30.1025 12.3128 29.7558 12.6614C29.4108 13.0099 29.4143 13.5736 29.7611 13.9186C31.7831 15.9228 32.8963 18.5974 32.8963 21.4498C32.8963 24.3022 31.7831 26.975 29.7611 28.9792C29.4143 29.326 29.4108 29.8897 29.7558 30.2382C29.9318 30.4125 30.1595 30.4997 30.3871 30.4997C30.6129 30.4997 30.8406 30.4143 31.0148 30.2418C33.3764 27.9033 34.6746 24.7806 34.6746 21.4498C34.6746 18.119 33.3764 14.9963 31.0148 12.656Z" fill="white"/>
</svg>
