<svg width="14" height="17" viewBox="0 0 14 17" fill="none" xmlns="http://www.w3.org/2000/svg">
<path d="M4.975 11.4321V12.9332H9.025V11.4235C8.92701 11.3691 8.83232 11.3075 8.74175 11.2381L4.975 11.4321ZM4.975 11.4321C5.07857 11.3758 5.17877 11.3113 5.27411 11.2381L4.975 11.4321ZM12.464 9.10864C12.464 7.26436 11.1282 5.72764 9.37374 5.41233C9.59658 5.01784 9.72451 4.56259 9.72451 4.07788V3.67529C9.72451 2.17304 8.50225 0.950781 7 0.950781C5.49774 0.950781 4.27573 2.17306 4.27573 3.67529V4.07788C4.27573 4.56357 4.40403 5.01955 4.62771 5.41485C2.88029 5.73597 1.55186 7.26947 1.55186 9.10864V9.39868C1.55186 10.4819 2.31981 11.4335 3.37854 11.6622L3.37864 11.6622C3.42741 11.6727 3.47622 11.6815 3.525 11.6887V12.9332H2.32812C1.23896 12.9332 0.353125 13.819 0.353125 14.9082C0.353125 15.9974 1.23896 16.8832 2.32812 16.8832H11.6719C12.761 16.8832 13.6469 15.9974 13.6469 14.9082C13.6469 13.819 12.761 12.9332 11.6719 12.9332H10.475V11.6911C10.5291 11.6835 10.5833 11.6739 10.6373 11.6622C11.6961 11.4335 12.464 10.4819 12.464 9.39868V9.10864ZM3.68494 10.2448L3.68489 10.2448C3.28933 10.1595 3.00186 9.80303 3.00186 9.39868V9.10864C3.00186 7.83695 4.03644 6.80215 5.30811 6.80215H7L7.00885 6.80196C7.00892 6.80196 7.00899 6.80196 7.00905 6.80196C7.01082 6.80205 7.01328 6.80215 7.01587 6.80215H8.70776C9.97943 6.80215 11.014 7.83695 11.014 9.10864V9.39868C11.014 9.80304 10.7265 10.1595 10.3312 10.2448C10.0825 10.2984 9.82431 10.2406 9.62251 10.0863L7.73306 8.6415V7.66675C7.73306 7.26628 7.40823 6.94175 7.00806 6.94175C6.60761 6.94175 6.28306 7.2663 6.28306 7.66675V8.64174L4.39365 10.0863C4.39363 10.0863 4.39362 10.0863 4.39361 10.0863C4.19153 10.2407 3.93311 10.2984 3.68494 10.2448ZM5.90625 15.4332H2.32812C2.03863 15.4332 1.80313 15.1977 1.80313 14.9082C1.80313 14.6187 2.03863 14.3832 2.32812 14.3832H6.29954C6.28347 14.4777 6.275 14.5748 6.275 14.6738V15.1426C6.275 15.3027 6.14448 15.4332 5.98438 15.4332H5.90625ZM12.1969 14.9082C12.1969 15.1977 11.9614 15.4332 11.6719 15.4332H7.70046C7.71653 15.3387 7.725 15.2416 7.725 15.1426V14.6738C7.725 14.5137 7.85552 14.3832 8.01562 14.3832H11.6719C11.9614 14.3832 12.1969 14.6187 12.1969 14.9082ZM5.72573 3.67529C5.72573 2.97269 6.29744 2.40078 7 2.40078C7.70258 2.40078 8.27451 2.97271 8.27451 3.67529V4.07788C8.27451 4.78044 7.70261 5.35215 7 5.35215C6.29742 5.35215 5.72573 4.78046 5.72573 4.07788V3.67529ZM7.00805 9.9125L8.74168 11.2381L5.27424 11.238L7.00805 9.9125Z" fill="white" stroke="white" stroke-width="0.2"/>
</svg>
